<?xml version="1.0" standalone="no"?>
<!DOCTYPE svg PUBLIC "-//W3C//DTD SVG 1.1//EN" "http://www.w3.org/Graphics/SVG/1.1/DTD/svg11.dtd" >
<svg xmlns="http://www.w3.org/2000/svg" xmlns:xlink="http://www.w3.org/1999/xlink" version="1.1">
<metadata>
Created by FontForge 20161003 at Thu Jun 15 06:49:03 2017
 By www-data
(c) vallex
</metadata>
<defs>
<font id="ObelixPro" horiz-adv-x="1594" >
  <font-face 
    font-family="ObelixPro"
    font-weight="400"
    font-stretch="normal"
    units-per-em="2048"
    panose-1="2 0 0 0 0 0 0 0 0 0"
    ascent="1638"
    descent="-410"
    x-height="2117"
    cap-height="2108"
    bbox="-164 -558.067 3110 2820"
    underline-thickness="538"
    underline-position="-327"
    unicode-range="U+0020-25FC"
  />
<missing-glyph horiz-adv-x="748" 
d="M68 0v1365h544v-1365h-544zM136 68h408v1229h-408v-1229z" />
    <glyph glyph-name=".notdef" horiz-adv-x="748" 
d="M68 0v1365h544v-1365h-544zM136 68h408v1229h-408v-1229z" />
    <glyph glyph-name="glyph1" horiz-adv-x="0" 
 />
    <glyph glyph-name="glyph2" horiz-adv-x="682" 
 />
    <glyph glyph-name="space" unicode=" " horiz-adv-x="712" 
 />
    <glyph glyph-name="exclam" unicode="!" horiz-adv-x="759" 
d="M53.5 195.5q-12.5 53.5 3.5 116.5q9 57 47 101t85 74t108.5 44t118.5 8q60 -13 110.5 -49t80 -80.5t42.5 -101t-3 -110.5q-13 -57 -46 -107t-83.5 -80t-108.5 -43t-124 0q-57 13 -104.5 43t-80.5 80.5t-45.5 104zM154 2139l627 -37l-201 -1399q-413 25 -410 25
q3 -3 -6 680q-6 318 -10 731z" />
    <glyph glyph-name="quotedbl" unicode="&#x22;" horiz-adv-x="942" 
d="M32 2117l393 123q-57 -457 -9 -791l-350 -141zM492 1330l37 816l400 69q-98 -457 -81 -788z" />
    <glyph glyph-name="numbersign" unicode="#" horiz-adv-x="2180" 
d="M60 854l400 19v201q-135 -3 -287 -22l-85 375l369 26v415l510 76q-25 -233 -47 -476l293 16v384l501 76q-25 -221 -38 -441l397 22l3 -369q-66 -3 -207.5 -4.5t-204.5 -7.5q-13 -107 -7 -211l385 22l25 -369q-135 -6 -410 -13q6 -85 10 -160l12 -161l-463 -107v410
q-107 -3 -309 -16q0 -145 13 -287l-460 -107v359q-72 -3 -135 -9l-152 -10zM895 898l318 16l3 208q-110 -3 -315 -16q0 -69 -6 -208z" />
    <glyph glyph-name="dollar" unicode="$" horiz-adv-x="1603" 
d="M16 126v9l22 167q13 0 22 136q13 16 28 161h10q22 0 132 -95l57 -19q44 -28 78 -28q0 -19 199 -35q72 0 72 22l-3 13l3 179v215q-25 22 -129 38q0 9 -56 28l-57 25q-3 16 -38 16q0 13 -50 25l-95 79q-69 57 -94 113q-57 72 -85 211v139q0 44 25 110q32 117 160 246
q69 72 221 158q142 57 157 56q25 0 60 35l-3 44v117q0 41 32 41h201l19 -13l-3 -44v-104l13 -13h101q262 -19 293 -38l100 -25q98 -32 98 -56v-7l-22 -50l-22 -82l-73 -211l-63 -164h-3q-28 0 -75 31l-76 26q-66 25 -227 34l-60 7l-3 -22v-356l13 -16h41l107 -22
q107 -22 208 -73q95 -32 205 -138q63 -91 63 -107q13 0 15 -60q16 0 26 -76v-123q-25 -135 -98 -246q0 -16 -101 -119q-63 -60 -123 -92q-85 -60 -179 -94q0 -9 -63 -29q0 -6 -76 -18q-6 -9 -63 -19v-123l-19 -22h-176q-25 0 -29 19v78l-12 10h-26q-208 19 -308 38
q-25 0 -79 28q-151 41 -192 85zM406 1487q0 -63 98 -129q22 0 60 -32q19 0 41 -12h13l3 283l9 35q-50 -22 -98 -25q-6 -9 -69 -32q-57 -50 -57 -88zM860 388h3q95 19 145 44q19 0 41 25q38 0 88 88v76q-57 79 -138 101q0 19 -73 25l-25 15h-19q-12 1 -12 -15z" />
    <glyph glyph-name="percent" unicode="%" horiz-adv-x="1789" 
d="M3 145v3q79 72 211 265q135 186 394 598l173 278q252 406 511 857l22 12l47 -38q0 -6 28 -6q32 -38 180 -104v-9q0 -9 -63 -104l-157 -281q-13 0 -26 -41q-16 -6 -28 -50l-189 -315q-243 -403 -551 -854q-186 -255 -328 -410q-41 9 -224 199zM3 1594v123q22 107 69 180
q19 44 149 164q104 76 236 97h151q151 -41 170 -72q69 -19 126 -164l10 -82q0 -211 -158 -372q-120 -107 -211 -119q0 -22 -167 -35h-9q-148 0 -224 66q-85 50 -123 142zM343 1701q0 -72 54 -97l16 -7h44q50 0 110 86l16 78v22q0 63 -73 85h-53q-88 -35 -88 -75
q-26 -1 -26 -92zM851 287v9h3l-3 60v38q22 161 38 176q32 142 173 300q151 123 242 122l45 4q208 0 308 -189q22 -19 51 -130v-179q-25 -135 -73 -246q-101 -205 -277 -277q-113 -35 -142 -35h-28q-145 0 -246 126q-47 60 -72 139q0 19 -19 82zM1159 429q6 -104 35 -104
q0 -22 35 -23h34q41 0 104 92l26 104v6q0 95 -89 110h-31q-57 -28 -85 -78q-20 -31 -29 -107z" />
    <glyph glyph-name="ampersand" unicode="&#x26;" horiz-adv-x="1871" 
d="M79 532v32q0 82 19 135q16 50 60 123q28 44 85 104q101 104 182 152v6l-41 88q-88 164 -94 252q-3 0 -6 35h-4l4 19v34q19 132 41 133q0 35 97 148q82 69 161 94q3 7 113 29h111l110 -22q186 -54 290 -186q66 -85 66 -139q3 0 13 -63q0 -38 -23 -157q-9 0 -22 -60
q-6 0 -41 -54q-117 -120 -154 -139q-35 -32 -50 -31q0 -13 -26 -19v-9l196 -164q57 -44 72 -44q72 98 82 141q32 38 47 108q13 0 19 56l3 3h10q54 -41 76 -44q0 -13 113 -56l101 -38l6 -19l-38 -110q-6 0 -12 -35q-9 -6 -26 -41l-97 -161q0 -13 72 -41q69 -47 170 -94
q38 -13 60 -35v-3q-38 -79 -116 -186q-63 -98 -120 -157l-13 -4l-126 63l-195 120l-158 -107l-85 -38l-41 -16l-69 -22l-94 -25l-158 -9q-164 9 -220 34q-117 35 -155 73q-72 32 -151 179q-25 54 -44 167zM488 577q0 -35 51 -79q63 -38 113 -41h3q158 16 180 41q19 0 82 41
v12q-35 0 -284 262h-12q-95 -85 -123 -139q-10 0 -10 -22v-75zM636 1487q0 -101 54 -157q25 -32 50 -41q76 0 161 119l16 35v35q-19 16 -19 44q-54 57 -132 57l-57 -10h-13q-60 -41 -60 -82z" />
    <glyph glyph-name="quotesingle" unicode="'" horiz-adv-x="614" 
d="M66 2256l466 85l-97 -825l-340 -29z" />
    <glyph glyph-name="parenleft" unicode="(" horiz-adv-x="853" 
d="M419 2420l221 -85q-362 -1216 -7 -2568l-204 -117q-882 1418 -10 2770z" />
    <glyph glyph-name="parenright" unicode=")" horiz-adv-x="866" 
d="M214 2335l221 85q873 -1352 -10 -2770l-204 117q356 1352 -7 2568z" />
    <glyph glyph-name="asterisk" unicode="*" horiz-adv-x="1222" 
d="M25 1386l300 186q-113 72 -243 155l189 271l208 -152l38 262l293 3l-25 -129q-9 -72 -19 -132l274 176l104 -243q-148 -95 -312 -189l239 -176l-220 -236q-25 19 -164 122q-13 -113 -19 -226l-303 -51l41 287q-38 -25 -115 -75.5t-111 -72.5z" />
    <glyph glyph-name="plus" unicode="+" horiz-adv-x="1443" 
d="M88 1033l413 45l-50 384l507 35q-50 -287 -54 -391l366 53l72 -419q-192 -19 -381 -37q3 -129 38 -334l-467 -67v350q-139 -13 -324 -44z" />
    <glyph glyph-name="comma" unicode="," horiz-adv-x="645" 
d="M-142 -239l183 693l469 -25q-176 -369 -283 -678z" />
    <glyph glyph-name="hyphen" unicode="-" horiz-adv-x="916" 
d="M88 1213l738 9l-10 -469q-400 22 -699 -16z" />
    <glyph glyph-name="period" unicode="." horiz-adv-x="721" 
d="M22 195.5q-13 53.5 3 116.5q9 57 47 101t85.5 74t109 44t117.5 8q60 -13 110.5 -49t80.5 -80.5t42.5 -101t-3.5 -110.5q-13 -57 -45.5 -107t-83 -80t-109 -43t-124.5 0q-54 13 -105.5 43t-81.5 80.5t-43 104z" />
    <glyph glyph-name="slash" unicode="/" horiz-adv-x="1890" 
d="M-69 0l1484 2083l551 -130q-929 -1131 -1503 -2029z" />
    <glyph glyph-name="zero" unicode="0" horiz-adv-x="1723" 
d="M-32 1052q44 400 281 731q299 400 734 400q369 0 599 -330q113 -170 164 -375q44 -195 15 -426q-44 -388 -290 -715q-293 -400 -724 -400q-378 0 -605 325q-110 161 -151 365q-47 195 -23 425zM476 958q-9 -104 9 -183q22 -120 114 -189q91 -82 236 -82q198 0 321 164
q95 132 114 315q16 208 -63 413q-91 201 -252 201q-195 0 -341 -252q-117 -202 -138 -387z" />
    <glyph glyph-name="one" unicode="1" horiz-adv-x="1090" 
d="M110 1941l886 123q-123 -1093 -41 -1941l-558 -126l-9 1443l-253 -28z" />
    <glyph glyph-name="two" unicode="2" horiz-adv-x="1679" 
d="M35 82q-60 280 34 479q113 239 637 485q293 135 321 265q9 72 0 123q-13 57 -63 101t-120 44q-154 0 -119 -196l-624 -97q32 621 444 781q110 41 243 41q258 0 498 -145q312 -186 365 -454q54 -246 -161 -479q-161 -176 -516 -318q-274 -104 -331 -208l898 47l41 -519
l-1513 -67q-22 63 -34 117z" />
    <glyph glyph-name="three" unicode="3" horiz-adv-x="1499" 
d="M-41 466l466 246q38 -44 88.5 -96t105.5 -88t115 -49t117 19q57 35 74 82t4.5 96t-49 93t-92.5 72q-50 28 -104 38t-98 10q-54 0 -107 -10l-38 369q117 -13 199 10.5t132 52.5q57 35 94 88q32 60 30.5 102.5t-70.5 80.5q-54 28 -107.5 12.5t-101 -52t-88.5 -87t-72 -94.5
l-394 293q57 101 139 189q72 72 185.5 140t274.5 90q120 16 245.5 -9t231.5 -86.5t180 -153t94.5 -206.5t-27 -250.5t-186.5 -277.5q167 -126 238 -263t65 -266t-75.5 -244t-183 -198.5t-257 -124.5t-294.5 -26q-101 9 -186 36.5t-156 65t-127.5 81.5t-100.5 88
q-101 101 -164 227z" />
    <glyph glyph-name="four" unicode="4" 
d="M3 649l173 1349l640 78q-161 -602 -243 -1115l290 13l-3 825l574 82q-47 -561 -60 -882l160 9l51 -529h-110q-60 -3 -95 -3q0 -186 19 -366l-529 -113l-7 463q-328 -19 -671 -47z" />
    <glyph glyph-name="five" unicode="5" horiz-adv-x="1578" 
d="M0 740l627 -41q-13 -60 0 -97q9 -54 60 -54q16 0 38 3q129 35 192 139q32 60 19 104q-16 57 -70 104q-76 76 -349 76q-120 0 -278 -13l-207 -41q-3 416 28 1096l1270 67l50 -514q-378 -19 -785 -35q-3 -44 -9 -126q816 -13 926 -393q63 -170 -44 -375q-72 -170 -230 -315
q-337 -321 -683 -322q-230 0 -388 195q-95 104 -132 294q-25 113 -35 248z" />
    <glyph glyph-name="six" unicode="6" horiz-adv-x="1622" 
d="M32 1090q19 189 66 334t111.5 250.5t140 176.5t154.5 115q176 107 391 114h31q202 0 364.5 -110.5t259.5 -302.5l-444 -221q-32 41 -65 63t-64 32q-38 16 -76 15h-22q-32 0 -77.5 -23.5t-89.5 -70.5t-83.5 -119.5t-58.5 -170.5q28 19 101 52t177 47.5t229.5 -5
t267.5 -107.5q107 -69 165.5 -146t80.5 -154.5t17.5 -153t-25 -138.5t-44 -113.5t-42.5 -75.5q-72 -107 -157.5 -189t-173.5 -134t-168.5 -78.5t-146.5 -26.5h-54q-95 0 -195 28q-117 32 -232 98t-200 193.5t-127.5 327.5t-10.5 493zM608 699q9 -104 89.5 -171.5
t159.5 -86.5q32 -6 69.5 3.5t72 33t64.5 68t49 116.5q22 79 -9.5 129t-89.5 78.5t-130.5 30t-134 -19t-104 -67.5t-36.5 -114z" />
    <glyph glyph-name="seven" unicode="7" horiz-adv-x="1282" 
d="M-38 1462l25 529l1333 126l-567 -2073l-561 -47l385 1503z" />
    <glyph glyph-name="eight" unicode="8" horiz-adv-x="1777" 
d="M22 438q-50 243 117 466q104 161 302 265q-227 107 -265 293q-6 44 -6 104q9 230 252 400q227 151 526 170q306 13 520 -126q170 -110 202 -264q9 -44 6 -95q-10 -246 -290 -422q321 -142 378 -419q9 -57 7 -126q-9 -284 -284 -498q-268 -198 -627 -221
q-369 -25 -621 158q-180 126 -217 315zM577 618q13 -88 116 -142q91 -41 202 -35q148 9 255 98q110 91 88 211q-19 85 -116.5 130.5t-204.5 39.5q-145 -13 -255 -91q-113 -88 -85 -211zM681 1427q28 -123 217 -113q95 6 170.5 61t56.5 131q-9 63 -78.5 94.5t-132.5 22.5
q-98 -3 -173.5 -61.5t-59.5 -134.5z" />
    <glyph glyph-name="nine" unicode="9" horiz-adv-x="1622" 
d="M17.5 1323.5q4.5 75.5 23.5 138.5t44 113.5t41 75.5q72 107 159 189t173.5 134t168.5 79t145 27h54q98 0 198 -29q117 -32 230 -98t200 -193.5t129.5 -327.5t10.5 -493q-22 -189 -69 -334t-111.5 -250.5t-140.5 -176.5t-151 -115q-180 -107 -391 -113h-35
q-198 0 -362 110t-258 302l441 221q32 -41 64.5 -63t67.5 -32q35 -16 73 -15h22q35 0 80.5 23.5t89.5 70.5t83.5 119.5t54.5 170.5q-28 -19 -100.5 -52t-175 -47t-230 5t-266.5 107q-110 66 -166.5 143t-78.5 156t-17.5 154.5zM536 1396q-19 -79 12.5 -129.5t88 -79
t130.5 -30t135.5 19t102.5 68t38 113.5q-9 104 -89.5 171.5t-159.5 86.5q-32 6 -69.5 -3t-74 -33t-64.5 -68t-50 -116z" />
    <glyph glyph-name="colon" unicode=":" horiz-adv-x="740" 
d="M59.5 582.5q-12.5 53.5 3.5 113.5q9 60 47 104t85.5 72.5t108.5 42.5t118 5q63 -16 112 -49t79 -75.5t42.5 -99t-3.5 -113.5q-13 -54 -46 -104t-83 -80t-108.5 -43t-124.5 0q-54 13 -102.5 43t-82 80t-46 103.5zM59.5 1307.5q-12.5 56.5 3.5 116.5q9 54 47 101t85.5 77
t108.5 41t118 5q63 -13 112 -46t79 -80t42.5 -101t-3.5 -113q-13 -57 -46 -104.5t-83 -79t-108.5 -45.5t-124.5 -1q-54 16 -102.5 47t-82 78.5t-46 104z" />
    <glyph glyph-name="semicolon" unicode=";" horiz-adv-x="778" 
d="M-117 -173l149 753l422 -13q-161 -410 -259 -750zM6.5 1095q-15.5 52 2.5 105q13 50 46 93t77 71.5t104 38t114 2.5q66 -13 110 -42.5t72.5 -72t44 -91.5t0.5 -103q-16 -54 -49 -96t-79 -70.5t-104 -43t-115 -1.5q-60 16 -105.5 44.5t-74 71t-44 94.5z" />
    <glyph glyph-name="equal" unicode="=" horiz-adv-x="1323" 
d="M41 1371l1137 113l67 -422q-618 -38 -1078 -114zM79 766l1134 107l69 -422q-545 -28 -1074 -114z" />
    <glyph glyph-name="question" unicode="?" horiz-adv-x="1228" 
d="M39 195.5q-11 53.5 2 116.5q9 57 47 101t85.5 74t110.5 44t116 8q63 -13 113.5 -49t79 -80.5t41 -101t-0.5 -110.5q-16 -57 -49 -107t-81.5 -80t-108.5 -43t-123 0q-57 13 -105.5 43t-82 80.5t-44.5 104zM120 1711l60 466q416 -32 677 -138q356 -148 331 -435
q-38 -369 -400 -596q-91 -53 -233 -110l-26 -208l-387 22l-16 479q501 126 535.5 337t-541.5 183z" />
    <glyph glyph-name="at" unicode="@" horiz-adv-x="2495" 
d="M-6 737q0 551 214 949q189 343 517 523q299 161 649 160q425 0 756 -226q410 -271 410 -713q0 -325 -246 -809q-205 -400 -693 -656l-259 246l38 258q-195 -135 -403 -135q-145 0 -240 91q-123 110 -123 287q0 302 246 570q193 214 429 268q113 28 220 0l3 22q60 6 104 7
q28 0 86.5 -6.5t90.5 -6.5q54 0 110 13q-57 -299 -104 -561l-107 -555q312 290 388 539q41 135 40 246q0 302 -280 475q-227 148 -504 149q-454 0 -700 -322q-186 -246 -185 -630q0 -277 122 -646l-491 -334q-88 441 -88 797zM989 722q0 -113 98 -114q91 0 167 82
q57 63 69 139q13 72 -32.5 113t-105.5 28q-72 -16 -134 -89.5t-62 -158.5z" />
    <glyph glyph-name="A" unicode="A" 
d="M-41 117q296 967 447 1925l753 104q129 -857 479 -1982l-573 -132l-76 352l-375 -41l-66 -356zM652 753l255 3l-129 750z" />
    <glyph glyph-name="B" unicode="B" horiz-adv-x="1556" 
d="M35 1994q239 104 538 108q8 0 15 1q299 0 496 -118q211 -129 230 -340q1 -14 1 -28q0 -224 -241 -429q309 -38 429 -309q47 -91 46 -186q0 -33 -5 -66q-19 -148 -123 -262q-233 -255 -608 -327q-140 -23 -327 -23q-174 0 -388 20q4 138 4 281q0 385 -26 806
q-35 803 -41 872zM476 1673l28 -362q246 54 303 160q29 61 29 105q0 103 -155 119q-24 4 -50 4q-70 0 -155 -26zM542 860l13 -365q40 -2 76 -3q97 0 169 18q145 44 170 155q6 27 6 51q0 104 -125 147q-71 26 -146 26q-79 0 -163 -29z" />
    <glyph glyph-name="C" unicode="C" horiz-adv-x="1345" 
d="M-3 1093q6 290 116 539q110 255 293 394q163 120 349 119q44 0 89 -6q262 -35 536 -289l-145 -193l-148 -192q-145 98 -261 98q-100 0 -177 -73q-139 -127 -139 -396v-23q16 -280 158 -409q75 -71 168 -71q115 0 260 108l275 -349q-214 -287 -476 -337q-52 -10 -104 -10
q-173 0 -340 114q-205 135 -328 393q-126 271 -126 569v14z" />
    <glyph glyph-name="D" unicode="D" horiz-adv-x="1581" 
d="M60 2029q281 53 506 53q78 0 149 -6q321 -28 511 -176q274 -214 334 -485q17 -81 17 -161q0 -25 -2 -50q-16 -233 -116 -426q-113 -224 -347 -400q-129 -107 -283 -176q-331 -161 -747 -167h-6l-10 1657q-6 299 -6 337zM602 1046q-1 -55 -1 -109q0 -160 7 -304
q214 82 334 262q91 147 91 297q0 27 -3 53q-22 154 -141 230q-90 57 -221 57q-20 0 -41 -1q-22 -280 -25 -485z" />
    <glyph glyph-name="E" unicode="E" horiz-adv-x="1342" 
d="M57 2010l564 66l567 67l34 -256l35 -258q-170 -12 -321 -25q-154 -19 -296 -35q-9 -98 -13 -142l-9 -138l236 34l233 44l22 -195l28 -198q-233 -38 -302 -48q-123 -22 -217 -37l-7 -262l318 44l316 44l34 -258l32 -259q-246 -16 -552 -63q-309 -54 -680 -132
q-3 170 -7 498l-6 507q-6 662 -9 1002z" />
    <glyph glyph-name="F" unicode="F" horiz-adv-x="1288" 
d="M25 2001l1163 132l72 -517q-346 -19 -655 -66l-10 -299l599 107l57 -391q-353 -50 -656 -107q0 -375 32 -737l-570 -126z" />
    <glyph glyph-name="G" unicode="G" horiz-adv-x="1805" 
d="M3 851q-1 27 -1 53q0 81 7 161q22 189 89 365q76 176 189 334q148 195 327 290q180 95 394 95q186 0 337 -79q148 -79 262 -246l-154 -167l-161 -167q-113 134 -254 134q-51 0 -105 -17q-180 -63 -319 -290q-123 -198 -123 -413q0 -61 10 -123q28 -148 113 -230
q91 -86 245 -86q16 0 33 1q148 6 261 104q107 91 145 240q-110 -19 -255 -48q-95 -19 -236 -56l9 208l10 205l478 85l479 75q19 -80 19 -173v-25q0 -101 -22 -221q-28 -101 -66 -195q-38 -95 -91 -180q-148 -249 -360 -372q-214 -126 -488 -126q-183 0 -337 76
q-151 82 -258 233q-54 85 -98 170q-35 95 -57 186q-19 98 -22 199z" />
    <glyph glyph-name="H" unicode="H" horiz-adv-x="1547" 
d="M44 2020l624 91q-57 -555 -66 -952l277 48l-6 813l627 91q-66 -705 -66 -1281q0 -377 28 -698l-580 -132l-3 781q-95 -19 -284 -53q9 -350 35 -596l-573 -132z" />
    <glyph glyph-name="I" unicode="I" horiz-adv-x="759" 
d="M95 2016l293 48l286 44q-57 -564 -66 -1049q-2 -109 -2 -214q0 -362 24 -678l-265 -69l-267 -60z" />
    <glyph glyph-name="J" unicode="J" horiz-adv-x="1241" 
d="M-28 148l204 492l215 -29l214 -25l-3 1434l293 47l299 44q-54 -577 -63 -1062q-5 -143 -5 -278q0 -322 27 -601l-532 -126q-13 0 -315 47q-117 22 -218 35z" />
    <glyph glyph-name="K" unicode="K" horiz-adv-x="1550" 
d="M50 2020l583 91q-28 -246 -31 -391q255 208 463 410l495 -230l-583 -485l636 -1144l-573 -268l-476 1056q-2 -111 -2 -221q0 -341 21 -668l-520 -129z" />
    <glyph glyph-name="L" unicode="L" horiz-adv-x="1206" 
d="M57 2013l576 92q-70 -693 -70 -1283q0 -75 1 -148l602 76l56 -523q-466 -28 -1162 -192z" />
    <glyph glyph-name="M" unicode="M" horiz-adv-x="2095" 
d="M-41 79q271 857 410 1931l526 107l157 -1017l142 976l501 41q117 -958 448 -2026l-558 -113l-202 1037l-126 -980l-460 -38l-126 1081l-170 -1110z" />
    <glyph glyph-name="N" unicode="N" horiz-adv-x="1632" 
d="M76 2073l579 98q13 -91 48 -252q91 -384 179 -668q54 -167 114 -262v1087l583 95q-76 -718 -76 -1309q0 -340 25 -638l-526 -126q-3 13 -69 100l-271 413q-66 98 -82 133q0 -340 25 -646l-526 -130z" />
    <glyph glyph-name="O" unicode="O" horiz-adv-x="1644" 
d="M3 1065q19 378 214 687q243 378 643 378q343 0 570 -312q126 -170 174 -353q42 -162 41 -351v-49q-13 -369 -221 -681q-246 -381 -643 -381q-350 0 -573 318q-107 135 -164 334q-42 165 -42 345q0 32 1 65zM510 977v-17q0 -81 26 -153q28 -120 94 -177q76 -69 192 -69
q161 0 243 142q66 120 69 302v20q0 191 -72 368q-79 189 -214 189q-158 0 -249 -237q-72 -180 -89 -368z" />
    <glyph glyph-name="P" unicode="P" horiz-adv-x="1471" 
d="M44 2035q433 104 717 104q45 0 87 -3q302 -19 450 -167q167 -154 170 -457v-12q0 -229 -107 -416q-101 -158 -277 -268q-205 -135 -492 -180q-4 -55 -4 -122q0 -182 26 -457l-557 -57q16 277 22 1005q3 184 3 336q0 563 -38 694zM564 1654l13 -520q186 3 302 114
q88 79 104 208q5 27 5 51q0 121 -118 166q-45 18 -105 18q-86 0 -201 -37z" />
    <glyph glyph-name="Q" unicode="Q" horiz-adv-x="1777" 
d="M25 1068q38 381 268 700q298 393 713 393h2q357 0 574 -321q113 -164 157 -356q33 -145 33 -288q0 -329 -175 -651q41 -117 167 -362l-434 -243l-79 205q-236 -158 -473 -158q-365 0 -586 315q-113 161 -151 360q-25 116 -25 244q0 79 9 162zM501 955q-1 -22 -1 -43
q0 -212 146 -335q94 -81 202 -81q84 0 176 49l-195 432l217 97l217 104q-19 151 -81 271q-85 158 -212 158q-183 0 -327 -240q-117 -202 -142 -412z" />
    <glyph glyph-name="R" unicode="R" horiz-adv-x="1518" 
d="M44 2016q520 139 863 139q479 0 552 -369q3 -32 3 -63q0 -398 -413 -661q69 -107 517 -643q-183 -164 -466 -406l-545 794v-81q0 -334 22 -613l-520 -132q19 660 19 1132q0 610 -32 903zM555 1254q110 50 211 126q150 116 150 204q0 10 -2 20q-16 69 -114 75h-15
q-82 0 -212 -28q-9 -104 -9 -195z" />
    <glyph glyph-name="S" unicode="S" horiz-adv-x="1600" 
d="M0 989q-2 20 -2 40q0 292 336 676q369 419 703 438q12 1 23 1q308 0 393 -392q19 -98 31 -221q-76 -25 -246 -82l-246 -78q-25 129 -126 129q-123 0 -230 -114q-49 -65 -49 -123q0 -24 8 -47q22 -50 152 -50q66 0 160 16q151 25 271 25q290 0 372 -164q28 -50 44 -107
q9 -40 8 -82q0 -142 -99 -303q-154 -274 -507 -456q-180 -98 -382 -98q-183 0 -375 79q47 170 174 501q126 -69 249 -70q54 0 113 22q104 19 192 63q108 51 108 108q0 6 -1 12q-13 76 -157 76q-95 0 -274 -32q-180 -41 -278 -41q-129 0 -201 47q-158 69 -164 227z" />
    <glyph glyph-name="T" unicode="T" horiz-adv-x="1484" 
d="M-22 1468l38 539l1399 132l91 -535q-365 -19 -526 -32q-5 -66 -5 -163q0 -401 84 -1318l-615 -126l-3 1557q-47 -3 -214 -25q-151 -19 -249 -29z" />
    <glyph glyph-name="U" unicode="U" horiz-adv-x="1616" 
d="M13 816l189 1279l586 -47l-101 -492l-88 -494q0 -35 -22 -161q-22 -113 -22 -186q0 -223 202 -223h2q145 0 233 100q76 85 76 234l-135 1307l576 -35l57 -696l50 -703q2 -29 2 -56q0 -298 -247 -454q-205 -126 -672 -180q-70 -8 -133 -8q-329 0 -468 207
q-100 154 -100 402q0 96 15 206z" />
    <glyph glyph-name="V" unicode="V" horiz-adv-x="1465" 
d="M-19 2020l602 113q35 -447 126 -1320q107 829 135 1254l634 -51q-255 -898 -448 -1906l-734 -104q-66 832 -315 2014z" />
    <glyph glyph-name="W" unicode="W" horiz-adv-x="2070" 
d="M-41 1938l558 116l173 -961l117 1024l463 38l135 -1125l170 1103l542 -113q-271 -844 -409 -1910l-571 -119l-119 913l-123 -872l-514 -32q-117 948 -422 1938z" />
    <glyph glyph-name="X" unicode="X" horiz-adv-x="1521" 
d="M-69 126q277 429 538 945l-453 854l491 281l129 -278q60 -129 123 -277l111 246q63 129 119 242l615 -41l-571 -1014q230 -457 457 -826l-425 -296l-321 611l-331 -576z" />
    <glyph glyph-name="Y" unicode="Y" horiz-adv-x="1540" 
d="M-41 1894l621 264q22 -142 56 -337q38 -208 114 -406l249 705l583 -75q-265 -558 -460 -1065q-192 -507 -315 -958l-549 28l237 653l-268 592z" />
    <glyph glyph-name="Z" unicode="Z" horiz-adv-x="1695" 
d="M6 532q117 132 467 511l497 526q-302 -25 -636 -72l-95 535l1406 85q6 -132 22 -520q-123 -126 -473 -513q-120 -117 -230 -252q-154 -164 -211 -255l819 41l41 -523q-911 -22 -1496 -89z" />
    <glyph glyph-name="bracketleft" unicode="[" horiz-adv-x="872" 
d="M77.5 1312.5q-1.5 247.5 1.5 502.5q3 252 12 495l-3 40q135 47 384.5 104t323.5 68t149 18l73 -423q-151 -16 -306 -41q-66 -13 -135 -28q-3 -284 -4 -564q3 -227 5 -474.5t9.5 -509t14.5 -522.5q3 -38 0 -73q13 0 25 4q76 13 148 22q154 25 296 60l111 -420
q-665 -132 -1043 -129q-22 451 -41 949q-6 205 -12.5 439.5t-8 482z" />
    <glyph glyph-name="backslash" unicode="\" horiz-adv-x="1518" 
d="M-22 2215l293 340q192 -410 403 -832q98 -176 199 -374.5t209.5 -405t222 -414.5t220.5 -403l-356 -202q-202 353 -410 744q-91 161 -190.5 350t-198.5 387.5t-200 404.5t-192 405z" />
    <glyph glyph-name="bracketright" unicode="]" horiz-adv-x="532" 
d="M-148 -47q151 6 312 25q63 13 132 25q25 262 35 539q13 214 22 450.5t17 483.5t11 506v85q-3 0 -3 3h-151q-161 0 -306 -6l-19 406q69 6 149.5 8t153 0.5t146.5 -5t134 -6.5q154 -13 300 -31q66 -577 72 -864q-3 -198 -11 -422t-17.5 -460t-21.5 -479q-16 -233 -32 -444
v-69q-142 -41 -290 -70q-47 -13 -277 -47.5t-299 -37.5z" />
    <glyph glyph-name="asciicircum" unicode="^" horiz-adv-x="2076" 
d="M-3 2158l646 76l-111 -1535q-437 10 -434 -25q3 32 -14.5 391t-86.5 1093zM19 189q-13 54 3 113q9 60 44 104.5t85.5 72.5t112 44t117.5 9q60 -22 110.5 -55t80.5 -75.5t42.5 -99t-3.5 -113.5q-13 -54 -46 -104t-83 -80t-110 -44.5t-123 1.5q-57 13 -107.5 43t-80 80
t-42.5 104zM589.5 217.5q-12.5 53.5 2.5 116.5q9 57 44 99.5t85.5 75.5t109 45.5t117.5 6.5q63 -16 110.5 -52t80.5 -78.5t44 -99.5t-1 -114q-13 -54 -49.5 -104t-83.5 -80t-108.5 -44t-121.5 2q-57 13 -107 42.5t-80 80t-42.5 104zM716.5 718q-20.5 -22 9.5 484t49 1111
l756 88l-381 -1702q-413 41 -433.5 19zM1143.5 192.5q-12.5 53.5 0.5 113.5t47.5 104t81.5 72t108.5 44t118.5 10q69 -19 116.5 -52t75.5 -77.5t42.5 -101t-4.5 -113.5q-13 -54 -46 -104t-80.5 -80t-108.5 -43t-121 0t-109 43t-79 80.5t-42.5 104zM1323 703q3 -6 91.5 509
t116.5 908l687 -85l-495 -1433q-403 101 -400 101z" />
    <glyph glyph-name="underscore" unicode="_" horiz-adv-x="1402" 
d="M-28 6l1449 7l-22 -281q-791 13 -1377 -9z" />
    <glyph glyph-name="grave" unicode="`" horiz-adv-x="592" 
d="M-76 2124l426 107l195 -615l-318 -88z" />
    <glyph glyph-name="a" unicode="a" 
d="M-41 117q296 967 447 1925l753 104q129 -857 479 -1982l-573 -132l-76 352l-375 -41l-66 -356zM652 753l255 3l-129 750z" />
    <glyph glyph-name="b" unicode="b" horiz-adv-x="1556" 
d="M35 1994q239 104 538 108q8 0 15 1q299 0 496 -118q211 -129 230 -340q1 -14 1 -28q0 -224 -241 -429q309 -38 429 -309q47 -91 46 -186q0 -33 -5 -66q-19 -148 -123 -262q-233 -255 -608 -327q-140 -23 -327 -23q-174 0 -388 20q4 138 4 281q0 385 -26 806
q-35 803 -41 872zM476 1673l28 -362q246 54 303 160q29 61 29 105q0 103 -155 119q-24 4 -50 4q-70 0 -155 -26zM542 860l13 -365q40 -2 76 -3q97 0 169 18q145 44 170 155q6 27 6 51q0 104 -125 147q-71 26 -146 26q-79 0 -163 -29z" />
    <glyph glyph-name="c" unicode="c" horiz-adv-x="1345" 
d="M-3 1093q6 290 116 539q110 255 293 394q163 120 349 119q44 0 89 -6q262 -35 536 -289l-145 -193l-148 -192q-145 98 -261 98q-100 0 -177 -73q-139 -127 -139 -396v-23q16 -280 158 -409q75 -71 168 -71q115 0 260 108l275 -349q-214 -287 -476 -337q-52 -10 -104 -10
q-173 0 -340 114q-205 135 -328 393q-126 271 -126 569v14z" />
    <glyph glyph-name="d" unicode="d" horiz-adv-x="1581" 
d="M60 2029q281 53 506 53q78 0 149 -6q321 -28 511 -176q274 -214 334 -485q17 -81 17 -161q0 -25 -2 -50q-16 -233 -116 -426q-113 -224 -347 -400q-129 -107 -283 -176q-331 -161 -747 -167h-6l-10 1657q-6 299 -6 337zM602 1046q-1 -55 -1 -109q0 -160 7 -304
q214 82 334 262q91 147 91 297q0 27 -3 53q-22 154 -141 230q-90 57 -221 57q-20 0 -41 -1q-22 -280 -25 -485z" />
    <glyph glyph-name="e" unicode="e" horiz-adv-x="1342" 
d="M57 2010l564 66l567 67l34 -256l35 -258q-170 -12 -321 -25q-154 -19 -296 -35q-9 -98 -13 -142l-9 -138l236 34l233 44l22 -195l28 -198q-233 -38 -302 -48q-123 -22 -217 -37l-7 -262l318 44l316 44l34 -258l32 -259q-246 -16 -552 -63q-309 -54 -680 -132
q-3 170 -7 498l-6 507q-6 662 -9 1002z" />
    <glyph glyph-name="f" unicode="f" horiz-adv-x="1288" 
d="M25 2001l1163 132l72 -517q-346 -19 -655 -66l-10 -299l599 107l57 -391q-353 -50 -656 -107q0 -375 32 -737l-570 -126z" />
    <glyph glyph-name="g" unicode="g" horiz-adv-x="1805" 
d="M3 851q-1 27 -1 53q0 81 7 161q22 189 89 365q76 176 189 334q148 195 327 290q180 95 394 95q186 0 337 -79q148 -79 262 -246l-154 -167l-161 -167q-113 134 -254 134q-51 0 -105 -17q-180 -63 -319 -290q-123 -198 -123 -413q0 -61 10 -123q28 -148 113 -230
q91 -86 245 -86q16 0 33 1q148 6 261 104q107 91 145 240q-110 -19 -255 -48q-95 -19 -236 -56l9 208l10 205l478 85l479 75q19 -80 19 -173v-25q0 -101 -22 -221q-28 -101 -66 -195q-38 -95 -91 -180q-148 -249 -360 -372q-214 -126 -488 -126q-183 0 -337 76
q-151 82 -258 233q-54 85 -98 170q-35 95 -57 186q-19 98 -22 199z" />
    <glyph glyph-name="h" unicode="h" horiz-adv-x="1547" 
d="M44 2020l624 91q-57 -555 -66 -952l277 48l-6 813l627 91q-66 -705 -66 -1281q0 -377 28 -698l-580 -132l-3 781q-95 -19 -284 -53q9 -350 35 -596l-573 -132z" />
    <glyph glyph-name="i" unicode="i" horiz-adv-x="759" 
d="M95 2016l293 48l286 44q-57 -564 -66 -1049q-2 -109 -2 -214q0 -362 24 -678l-265 -69l-267 -60z" />
    <glyph glyph-name="j" unicode="j" horiz-adv-x="1241" 
d="M-28 148l204 492l215 -29l214 -25l-3 1434l293 47l299 44q-54 -577 -63 -1062q-5 -143 -5 -278q0 -322 27 -601l-532 -126q-13 0 -315 47q-117 22 -218 35z" />
    <glyph glyph-name="k" unicode="k" horiz-adv-x="1550" 
d="M50 2020l583 91q-28 -246 -31 -391q255 208 463 410l495 -230l-583 -485l636 -1144l-573 -268l-476 1056q-2 -111 -2 -221q0 -341 21 -668l-520 -129z" />
    <glyph glyph-name="l" unicode="l" horiz-adv-x="1206" 
d="M57 2013l576 92q-70 -693 -70 -1283q0 -75 1 -148l602 76l56 -523q-466 -28 -1162 -192z" />
    <glyph glyph-name="m" unicode="m" horiz-adv-x="2095" 
d="M-41 79q271 857 410 1931l526 107l157 -1017l142 976l501 41q117 -958 448 -2026l-558 -113l-202 1037l-126 -980l-460 -38l-126 1081l-170 -1110z" />
    <glyph glyph-name="n" unicode="n" horiz-adv-x="1632" 
d="M76 2073l579 98q13 -91 48 -252q91 -384 179 -668q54 -167 114 -262v1087l583 95q-76 -718 -76 -1309q0 -340 25 -638l-526 -126q-3 13 -69 100l-271 413q-66 98 -82 133q0 -340 25 -646l-526 -130z" />
    <glyph glyph-name="o" unicode="o" horiz-adv-x="1644" 
d="M3 1065q19 378 214 687q243 378 643 378q343 0 570 -312q126 -170 174 -353q42 -162 41 -351v-49q-13 -369 -221 -681q-246 -381 -643 -381q-350 0 -573 318q-107 135 -164 334q-42 165 -42 345q0 32 1 65zM510 977v-17q0 -81 26 -153q28 -120 94 -177q76 -69 192 -69
q161 0 243 142q66 120 69 302v20q0 191 -72 368q-79 189 -214 189q-158 0 -249 -237q-72 -180 -89 -368z" />
    <glyph glyph-name="p" unicode="p" horiz-adv-x="1471" 
d="M44 2035q433 104 717 104q46 0 87 -3q302 -19 450 -167q167 -154 170 -457v-12q0 -229 -107 -416q-101 -158 -277 -268q-205 -135 -492 -180q-4 -55 -4 -122q0 -182 26 -457l-557 -57q16 277 22 1005q3 184 3 336q0 563 -38 694zM564 1654l13 -520q186 3 302 114
q88 79 104 208q5 27 5 51q0 122 -118 166q-45 18 -105 18q-86 0 -201 -37z" />
    <glyph glyph-name="q" unicode="q" horiz-adv-x="1777" 
d="M25 1068q38 381 268 700q298 393 713 393h2q357 0 574 -321q113 -164 157 -356q33 -145 33 -288q0 -329 -175 -651q41 -117 167 -362l-434 -243l-79 205q-236 -158 -473 -158q-365 0 -586 315q-113 161 -151 360q-25 116 -25 244q0 79 9 162zM501 955q-1 -22 -1 -43
q0 -212 146 -335q94 -81 202 -81q84 0 176 49l-195 432l217 97l217 104q-19 151 -81 271q-85 158 -212 158q-183 0 -327 -240q-117 -202 -142 -412z" />
    <glyph glyph-name="r" unicode="r" horiz-adv-x="1518" 
d="M44 2016q520 139 863 139q479 0 552 -369q3 -32 3 -63q0 -398 -413 -661q69 -107 517 -643q-183 -164 -466 -406l-545 794v-81q0 -334 22 -613l-520 -132q19 660 19 1132q0 610 -32 903zM555 1254q110 50 211 126q150 116 150 204q0 10 -2 20q-16 69 -114 75h-15
q-82 0 -212 -28q-9 -104 -9 -195z" />
    <glyph glyph-name="s" unicode="s" horiz-adv-x="1600" 
d="M0 989q-2 20 -2 40q0 292 336 676q369 419 703 438q12 1 23 1q308 0 393 -392q19 -98 31 -221q-76 -25 -246 -82l-246 -78q-25 129 -126 129q-123 0 -230 -114q-49 -65 -49 -123q0 -24 8 -47q22 -50 152 -50q66 0 160 16q151 25 271 25q290 0 372 -164q28 -50 44 -107
q9 -40 8 -82q0 -142 -99 -303q-154 -274 -507 -456q-180 -98 -382 -98q-183 0 -375 79q47 170 174 501q126 -69 249 -70q54 0 113 22q104 19 192 63q108 51 108 108q0 6 -1 12q-13 76 -157 76q-95 0 -274 -32q-180 -41 -278 -41q-129 0 -201 47q-158 69 -164 227z" />
    <glyph glyph-name="t" unicode="t" horiz-adv-x="1484" 
d="M-22 1468l38 539l1399 132l91 -535q-365 -19 -526 -32q-5 -66 -5 -163q0 -401 84 -1318l-615 -126l-3 1557q-47 -3 -214 -25q-151 -19 -249 -29z" />
    <glyph glyph-name="u" unicode="u" horiz-adv-x="1616" 
d="M13 816l189 1279l586 -47l-101 -492l-88 -494q0 -35 -22 -161q-22 -113 -22 -186q0 -223 202 -223h2q145 0 233 100q76 85 76 234l-135 1307l576 -35l57 -696l50 -703q2 -29 2 -56q0 -298 -247 -454q-205 -126 -672 -180q-70 -8 -133 -8q-329 0 -468 207
q-100 154 -100 402q0 96 15 206z" />
    <glyph glyph-name="v" unicode="v" horiz-adv-x="1465" 
d="M-19 2020l602 113q35 -447 126 -1320q107 829 135 1254l634 -51q-255 -898 -448 -1906l-734 -104q-66 832 -315 2014z" />
    <glyph glyph-name="w" unicode="w" horiz-adv-x="2070" 
d="M-41 1938l558 116l173 -961l117 1024l463 38l135 -1125l170 1103l542 -113q-271 -844 -409 -1910l-571 -119l-119 913l-123 -872l-514 -32q-117 948 -422 1938z" />
    <glyph glyph-name="x" unicode="x" horiz-adv-x="1521" 
d="M-69 126q277 429 538 945l-453 854l491 281l129 -278q60 -129 123 -277l111 246q63 129 119 242l615 -41l-571 -1014q230 -457 457 -826l-425 -296l-321 611l-331 -576z" />
    <glyph glyph-name="y" unicode="y" horiz-adv-x="1540" 
d="M-41 1894l621 264q22 -142 56 -337q38 -208 114 -406l249 705l583 -75q-265 -558 -460 -1065q-192 -507 -315 -958l-549 28l237 653l-268 592z" />
    <glyph glyph-name="z" unicode="z" horiz-adv-x="1695" 
d="M6 532q117 132 467 511l497 526q-302 -25 -636 -72l-95 535l1406 85q6 -132 22 -520q-123 -126 -473 -513q-120 -117 -230 -252q-154 -164 -211 -255l819 41l41 -523q-911 -22 -1496 -89z" />
    <glyph glyph-name="braceleft" unicode="{" horiz-adv-x="1603" 
d="M69 1270q183 -16 372 -19q88 0 176.5 -1.5t183 0t190.5 6t191 17.5l-7 -391q-170 -13 -349 -19q-72 -3 -159 -4.5t-178.5 -1.5t-184.5 4.5t-178 11.5zM350 1739l138 359q139 -47 287 -104q57 -28 128 -59.5t140 -66t141.5 -74t138.5 -80.5l-88 -388q-142 88 -293 161
q-69 32 -137 66.5t-146.5 67.5t-157.5 63t-151 55zM406 331q158 60 309 132q69 32 143.5 71t148.5 77t152.5 85.5t144.5 91.5l158 -350q-132 -76 -271 -158q-57 -32 -126 -68t-143 -73.5t-153 -69t-151 -63.5z" />
    <glyph glyph-name="braceright" unicode="}" horiz-adv-x="1603" 
d="M69 1667q132 82 278 160q57 32 126 66.5t140 74t148 71t153 59.5l208 -315q-148 -69 -306 -138q-63 -32 -138.5 -71.5t-151 -77t-153 -81.5t-146.5 -95zM208 394l88 387q145 -85 299 -160q60 -28 132.5 -61.5t151.5 -69.5t154.5 -66t154.5 -55l-142 -363
q-142 50 -280 114q-66 25 -132.5 55t-139 63t-146.5 74t-140 82zM378 901l10 391q164 13 340 19q82 3 167 4.5t174.5 1.5t182.5 -4.5t182 -14.5l50 -394q-186 16 -375 22q-79 0 -170 1.5t-187.5 0t-192.5 -7.5t-181 -19z" />
    <glyph glyph-name="asciitilde" unicode="~" horiz-adv-x="1559" 
d="M-41 2095q403 54 677 3q369 -69 401 -352q41 -359 -262 -653q-78 -69 -198 -148l15 -268l-378 -56l-113 516q460 224 452 435t-562 66zM144.5 187.5q-9.5 55.5 6.5 108.5q16 63 52 109t88 74t110.5 44t124.5 6q54 -19 101 -52t78.5 -77t41 -99t-6.5 -112
q-19 -57 -56.5 -107t-86.5 -80t-110.5 -44.5t-121.5 1.5q-63 13 -108.5 43t-74 80t-38 105.5zM847.5 187.5q-12.5 55.5 3.5 108.5q9 63 45.5 109t86.5 74t110 44t120 6q60 -19 109 -52t80.5 -77t42.5 -99t-2 -112t-47.5 -107t-83.5 -80t-110 -44.5t-121 1.5q-57 13 -109 43
t-82 80t-42.5 105.5zM992 696q3 -6 8 58.5t11.5 168.5t16 233.5t15.5 267.5q22 325 44 744l570 -85l-293 -1443q-107 22 -186 31q-41 6 -72.5 11t-59.5 9.5t-34 4.5h-20z" />
    <glyph glyph-name="uni00A0" unicode="&#xa0;" horiz-adv-x="712" 
 />
    <glyph glyph-name="uni00AD" unicode="&#xad;" horiz-adv-x="916" 
d="M88 1213l738 9l-10 -469q-400 22 -699 -16z" />
    <glyph glyph-name="Adieresis" unicode="&#xc4;" 
d="M-41 117q296 967 447 1925l753 104q129 -857 479 -1982l-573 -132l-76 352l-375 -41l-66 -356zM236 2335q9 91 99 154t204 63q107 0 173 -63t57 -154q-16 -82 -104 -146.5t-202 -64.5q-104 0 -173 64.5t-54 146.5zM652 753l255 3l-129 750zM810 2407q9 91 97.5 154.5
t198.5 63.5q113 0 179 -63.5t57 -154.5q-19 -85 -104 -148t-198 -63q-107 0 -176.5 63t-53.5 148z" />
    <glyph glyph-name="Edieresis" unicode="&#xcb;" horiz-adv-x="1285" 
d="M25 2001l1131 132l70 -517q-341 -19 -615 -60q-9 -82 -12 -160l-4 -151l536 91l54 -381q-388 -63 -605 -101q-3 -57 0 -107v-111l633 70l66 -517q-492 -32 -1229 -192zM28 2297q9 91 99 154t204 63q107 0 173 -63t57 -154q-16 -82 -104 -146.5t-202 -64.5
q-104 0 -173 64.5t-54 146.5zM602 2369q9 91 97.5 154.5t198.5 63.5q113 0 179 -63.5t57 -154.5q-19 -85 -104 -148t-198 -63q-107 0 -176.5 63t-53.5 148z" />
    <glyph glyph-name="Odieresis" unicode="&#xd6;" horiz-adv-x="1644" 
d="M3 1065q19 378 214 687q243 378 643 378q343 0 570 -312q126 -170 174 -353q47 -183 41 -400q-13 -369 -221 -681q-246 -381 -643 -381q-350 0 -573 318q-107 135 -164 334q-50 195 -41 410zM258 2347q9 91 99 154.5t204 63.5q107 0 173 -63.5t57 -154.5
q-16 -82 -104 -146.5t-202 -64.5q-104 0 -173 64.5t-54 146.5zM510 977q-3 -91 26 -170q28 -120 94 -177q76 -69 192 -69q161 0 243 142q66 120 69 302q4 202 -72 388q-79 189 -214 189q-158 0 -249 -237q-72 -180 -89 -368zM832 2420q9 91 97.5 154t198.5 63q113 0 179 -63
t57 -154q-19 -85 -104 -148t-198 -63q-107 0 -176.5 63t-53.5 148z" />
    <glyph glyph-name="Udieresis" unicode="&#xdc;" horiz-adv-x="1616" 
d="M13 816l189 1279l586 -47l-101 -492l-88 -494q0 -35 -22 -161q-22 -113 -22 -186q0 -224 204 -223q145 0 233 100q76 85 76 234l-135 1307l576 -35l57 -696l50 -703q25 -340 -245 -510q-205 -126 -672 -180q-435 -47 -601 199q-139 214 -85 608zM280 2379q9 91 99 154
t204 63q107 0 173 -63t57 -154q-16 -82 -104 -146.5t-202 -64.5q-104 0 -173 64.5t-54 146.5zM854 2451q9 91 97.5 154.5t198.5 63.5q113 0 179 -63.5t57 -154.5q-19 -85 -104 -148t-198 -63q-107 0 -176.5 63t-53.5 148z" />
    <glyph glyph-name="adieresis" unicode="&#xe4;" 
d="M-41 117q296 967 447 1925l753 104q129 -857 479 -1982l-573 -132l-76 352l-375 -41l-66 -356zM217 2344q9 91 99 154.5t204 63.5q107 0 173 -63.5t57 -154.5q-16 -82 -104 -146.5t-202 -64.5q-104 0 -173 64.5t-54 146.5zM652 753l255 3l-129 750zM791 2417
q9 91 97.5 154t198.5 63q113 0 179 -63t57 -154q-19 -85 -104 -148t-198 -63q-107 0 -176.5 63t-53.5 148z" />
    <glyph glyph-name="edieresis" unicode="&#xeb;" horiz-adv-x="1342" 
d="M57 2010l564 66l567 67l34 -256l35 -258q-170 -12 -321 -25q-154 -19 -296 -35q-9 -98 -13 -142l-9 -138l236 34l233 44l22 -195l28 -198q-233 -38 -302 -48q-123 -22 -217 -37l-7 -262l318 44l316 44l34 -258l32 -259q-246 -16 -552 -63q-309 -54 -680 -132
q-3 170 -7 498l-6 507q-6 662 -9 1002zM79 2341q9 91 99 154t203 63q107 0 173 -63t57 -154q-16 -82 -104 -146.5t-201 -64.5q-104 0 -173.5 64.5t-53.5 146.5zM652 2413q9 91 97.5 154.5t198.5 63.5q113 0 179.5 -63.5t57.5 -154.5q-19 -85 -104 -148t-199 -63
q-107 0 -176.5 63t-53.5 148z" />
    <glyph glyph-name="odieresis" unicode="&#xf6;" horiz-adv-x="1644" 
d="M3 1065q19 378 214 687q243 378 643 378q343 0 570 -312q126 -170 174 -353q47 -183 41 -400q-13 -369 -221 -681q-246 -381 -643 -381q-350 0 -573 318q-107 135 -164 334q-50 195 -41 410zM258 2347q9 91 99 154.5t204 63.5q107 0 173 -63.5t57 -154.5
q-16 -82 -104 -146.5t-202 -64.5q-104 0 -173 64.5t-54 146.5zM510 977q-3 -91 26 -170q28 -120 94 -177q76 -69 192 -69q161 0 243 142q66 120 69 302q4 202 -72 388q-79 189 -214 189q-158 0 -249 -237q-72 -180 -89 -368zM832 2420q9 91 97.5 154t198.5 63q113 0 179 -63
t57 -154q-19 -85 -104 -148t-198 -63q-107 0 -176.5 63t-53.5 148z" />
    <glyph glyph-name="Ydieresis" unicode="&#x178;" horiz-adv-x="1348" 
d="M-164 1894l277 -599l268 -592l-236 -653l539 -28q129 451 324 958t454 1065l-583 75l-249 -705q-69 198 -113 406q-38 195 -57 337zM170 2316q0 117 79 194t189 77q113 0 187 -79t74 -192q0 -104 -77 -183t-190 -79q-104 0 -183 79t-79 183zM907 2316q0 117 80.5 194
t197.5 77q107 0 182.5 -79t75.5 -192q0 -104 -78.5 -183t-186.5 -79q-110 0 -190.5 79t-80.5 183z" />
    <glyph glyph-name="tilde" unicode="&#x2dc;" horiz-adv-x="1071" 
d="M-41 2161q6 82 22 169t50.5 151.5t97.5 111.5t161 47q76 0 131 -22t107 -48.5t97.5 -47t96.5 -20.5q72 0 97 41t32 104l264 -16q-13 -88 -31.5 -170t-55 -150t-102.5 -115t-164 -47q-76 0 -143.5 28.5t-139.5 53.5q-38 19 -69.5 33t-75.5 14q-57 0 -83.5 -31.5
t-33.5 -85.5h-258z" />
    <glyph glyph-name="uni2000" unicode="&#x2000;" horiz-adv-x="1410" 
 />
    <glyph glyph-name="uni2001" unicode="&#x2001;" horiz-adv-x="2820" 
 />
    <glyph glyph-name="uni2002" unicode="&#x2002;" horiz-adv-x="1410" 
 />
    <glyph glyph-name="uni2003" unicode="&#x2003;" horiz-adv-x="2820" 
 />
    <glyph glyph-name="uni2004" unicode="&#x2004;" horiz-adv-x="940" 
 />
    <glyph glyph-name="uni2005" unicode="&#x2005;" horiz-adv-x="705" 
 />
    <glyph glyph-name="uni2006" unicode="&#x2006;" horiz-adv-x="470" 
 />
    <glyph glyph-name="uni2007" unicode="&#x2007;" horiz-adv-x="470" 
 />
    <glyph glyph-name="uni2008" unicode="&#x2008;" horiz-adv-x="352" 
 />
    <glyph glyph-name="uni2009" unicode="&#x2009;" horiz-adv-x="564" 
 />
    <glyph glyph-name="uni200A" unicode="&#x200a;" horiz-adv-x="156" 
 />
    <glyph glyph-name="uni2010" unicode="&#x2010;" horiz-adv-x="916" 
d="M88 1213l738 9l-10 -469q-400 22 -699 -16z" />
    <glyph glyph-name="uni2011" unicode="&#x2011;" horiz-adv-x="916" 
d="M88 1213l738 9l-10 -469q-400 22 -699 -16z" />
    <glyph glyph-name="figuredash" unicode="&#x2012;" horiz-adv-x="916" 
d="M88 1213l738 9l-10 -469q-400 22 -699 -16z" />
    <glyph glyph-name="endash" unicode="&#x2013;" horiz-adv-x="1789" 
d="M0 945v476h1790v-476h-1790z" />
    <glyph glyph-name="emdash" unicode="&#x2014;" horiz-adv-x="3572" 
d="M463 945v476h2647v-476h-2647z" />
    <glyph glyph-name="quoteleft" unicode="&#x2018;" horiz-adv-x="860" 
d="M148 1610l337 1153l646 57q-227 -608 -312 -1109z" />
    <glyph glyph-name="quoteright" unicode="&#x2019;" horiz-adv-x="860" 
d="M148 1610l337 1153l646 57q-227 -608 -312 -1109z" />
    <glyph glyph-name="quotesinglbase" unicode="&#x201a;" horiz-adv-x="1080" 
d="M91 -514l360 1094h541l-541 -1094h-360z" />
    <glyph glyph-name="quotedblleft" unicode="&#x201c;" horiz-adv-x="1046" 
d="M25 1957l340 242q101 -463 262 -769l-284 -248zM492 2143l368 201q60 -469 189 -778l-305 -217z" />
    <glyph glyph-name="quotedblright" unicode="&#x201d;" horiz-adv-x="998" 
d="M-25 1597q135 302 205 757l352 -199l-261 -769zM388 1462q158 293 264 747l331 -252l-328 -744z" />
    <glyph glyph-name="quotedblbase" unicode="&#x201e;" horiz-adv-x="1754" 
d="M91 -514l360 1094h538l-538 -1094h-360zM772 -514l350 1094h542l-542 -1094h-350z" />
    <glyph glyph-name="bullet" unicode="&#x2022;" horiz-adv-x="1499" 
d="M72 1326q0 142 54 263.5t145 213t214 145t265 53.5q135 0 259.5 -53.5t214.5 -145t145 -213t55 -263.5q0 -135 -55 -259.5t-145 -216t-214.5 -146.5t-259.5 -55q-142 0 -265 55t-214 146.5t-145 216t-54 259.5z" />
    <glyph glyph-name="ellipsis" unicode="&#x2026;" horiz-adv-x="2435" 
d="M120 293q0 72 26.5 133.5t69 109t107.5 74t134 26.5q76 0 135.5 -26.5t107 -74t72.5 -109t25 -133.5q0 -69 -25 -130.5t-72.5 -107.5t-107 -71t-135.5 -25q-69 0 -134 25t-107.5 71t-69 107.5t-26.5 130.5zM882 293q0 72 27 133.5t72.5 109t108.5 74t132 26.5t134 -26.5
t107.5 -74t72.5 -109t30 -133.5q0 -69 -30 -130.5t-72.5 -107.5t-107.5 -71t-134 -25t-132 25t-108.5 71t-72.5 107.5t-27 130.5zM1657 293q0 72 27 133.5t72.5 109t107 74t137.5 26.5q69 0 132 -26.5t107 -74t69.5 -109t25.5 -133.5q0 -69 -25.5 -130.5t-69.5 -107.5
t-107 -71t-132 -25q-76 0 -137.5 25t-107 71t-72.5 107.5t-27 130.5z" />
    <glyph glyph-name="uni202F" unicode="&#x202f;" horiz-adv-x="564" 
 />
    <glyph glyph-name="guilsinglleft" unicode="&#x2039;" horiz-adv-x="929" 
d="M91 1188l470 828l271 -154l-369 -674l369 -700l-271 -135z" />
    <glyph glyph-name="guilsinglright" unicode="&#x203a;" horiz-adv-x="929" 
d="M95 488l368 700l-368 674l277 154l463 -828l-463 -835z" />
    <glyph glyph-name="uni205F" unicode="&#x205f;" horiz-adv-x="705" 
 />
    <glyph glyph-name="Euro" unicode="&#x20ac;" horiz-adv-x="1751" 
d="M88 1011l32 237h154q-3 28 -3 56v67v59h-183l32 237h176q50 205 149.5 397t246 335.5t338.5 230t423 86.5q69 0 129 -6.5t135 -25.5l-50 -469q-82 16 -161 16q-135 0 -248.5 -46t-197 -120t-142 -178t-89.5 -220h778l-28 -237h-788v-56v-66q0 -28 6 -60h759l-31 -237
h-677q35 -113 94.5 -212.5t143 -175t189 -121t228.5 -45.5q82 0 164 19v-479q-88 -25 -196 -25q-233 0 -426.5 83.5t-341.5 225t-246 330.5t-145 400h-224z" />
    <glyph glyph-name="uni25FC" unicode="&#x25fc;" horiz-adv-x="2205" 
d="M0 0v2206h2206v-2206h-2206z" />
    </font>
</defs>
</svg>
